<svg width="67" height="44" viewBox="0 0 67 44" fill="none" xmlns="http://www.w3.org/2000/svg">
<mask id="path-1-outside-1_16_154" maskUnits="userSpaceOnUse" x="0" y="0.0461426" width="67" height="44" fill="black">
<rect fill="white" y="0.0461426" width="67" height="44"/>
<path d="M18.288 42.6221C12.8267 42.6221 8.73067 40.7448 6 36.9901C3.312 33.1928 1.968 28.3075 1.968 22.3341C1.968 18.1528 2.736 14.5048 4.272 11.3901C5.808 8.23281 7.89867 5.82214 10.544 4.15814C13.1893 2.49414 16.0907 1.66214 19.248 1.66214C24.7947 1.66214 28.848 3.45414 31.408 7.03814C33.968 10.5795 35.248 15.4435 35.248 21.6301C35.248 25.7688 34.5013 29.4381 33.008 32.6381C31.5573 35.7955 29.5307 38.2488 26.928 39.9981C24.368 41.7475 21.488 42.6221 18.288 42.6221ZM18.544 39.3581C24.9013 39.3581 28.08 33.6621 28.08 22.2701C28.08 16.7235 27.3547 12.4568 25.904 9.47014C24.496 6.48347 22.1067 4.99014 18.736 4.99014C15.4507 4.99014 13.0187 6.41947 11.44 9.27814C9.86133 12.0941 9.072 16.1475 9.072 21.4381C9.072 26.8568 9.81867 31.2088 11.312 34.4941C12.848 37.7368 15.2587 39.3581 18.544 39.3581ZM51.157 9.02214C50.261 9.36347 48.853 9.76881 46.933 10.2381C45.013 10.7075 43.4557 11.0275 42.261 11.1981L41.621 7.61414C43.797 7.14481 46.0157 6.35547 48.277 5.24614C50.581 4.13681 52.501 2.92081 54.037 1.59814H54.101L58.005 2.23814V38.3341L65.941 38.9101V42.0461H42.901V38.9101L51.157 38.3341V9.02214Z"/>
</mask>
<path d="M6 36.9901L5.18373 37.568L5.19126 37.5783L6 36.9901ZM4.272 11.3901L5.16888 11.8324L5.17124 11.8276L4.272 11.3901ZM10.544 4.15814L11.0765 5.0046H11.0765L10.544 4.15814ZM31.408 7.03814L30.5943 7.61939L30.5976 7.62399L31.408 7.03814ZM33.008 32.6381L32.1018 32.2153L32.0993 32.2206L33.008 32.6381ZM26.928 39.9981L26.3701 39.1682L26.3638 39.1725L26.928 39.9981ZM25.904 9.47014L24.9994 9.89659L25.0045 9.90705L25.904 9.47014ZM11.44 9.27814L12.3123 9.76716L12.3154 9.76156L11.44 9.27814ZM11.312 34.4941L10.4016 34.9079L10.4049 34.9151L10.4083 34.9222L11.312 34.4941ZM18.288 41.6221C13.0824 41.6221 9.31641 39.85 6.80874 36.402L5.19126 37.5783C8.14492 41.6396 12.5709 43.6221 18.288 43.6221V41.6221ZM6.81621 36.4124C4.27774 32.8263 2.968 28.1592 2.968 22.3341H0.968C0.968 28.4557 2.34626 33.5593 5.1838 37.5679L6.81621 36.4124ZM2.968 22.3341C2.968 18.2753 3.71318 14.7843 5.16887 11.8324L3.37513 10.9478C1.75882 14.2254 0.968 18.0303 0.968 22.3341H2.968ZM5.17124 11.8276C6.63592 8.81686 8.6081 6.55728 11.0765 5.0046L10.0115 3.31168C7.18924 5.08701 4.98008 7.64876 3.37277 10.9527L5.17124 11.8276ZM11.0765 5.0046C13.5606 3.44201 16.277 2.66214 19.248 2.66214V0.66214C15.9043 0.66214 12.8181 1.54628 10.0115 3.31168L11.0765 5.0046ZM19.248 2.66214C24.5652 2.66214 28.2704 4.366 30.5943 7.61938L32.2217 6.4569C29.4256 2.54228 25.0241 0.66214 19.248 0.66214V2.66214ZM30.5976 7.62399C32.9926 10.9371 34.248 15.5692 34.248 21.6301H36.248C36.248 15.3177 34.9434 10.2218 32.2184 6.45229L30.5976 7.62399ZM34.248 21.6301C34.248 25.6476 33.5236 29.1685 32.1018 32.2153L33.9142 33.061C35.4791 29.7077 36.248 25.89 36.248 21.6301H34.248ZM32.0993 32.2206C30.7169 35.2294 28.804 37.5323 26.3702 39.1682L27.4858 40.8281C30.2573 38.9653 32.3978 36.3615 33.9167 33.0556L32.0993 32.2206ZM26.3638 39.1725C23.9756 40.8044 21.2935 41.6221 18.288 41.6221V43.6221C21.6825 43.6221 24.7604 42.6905 27.4922 40.8238L26.3638 39.1725ZM18.544 40.3581C20.2873 40.3581 21.8604 39.966 23.2288 39.1487C24.5959 38.3321 25.7041 37.1237 26.5692 35.5735C28.2826 32.5032 29.08 28.0264 29.08 22.2701H27.08C27.08 27.9059 26.2881 31.9731 24.8228 34.5988C24.0986 35.8966 23.2201 36.8242 22.2032 37.4316C21.1876 38.0383 19.9794 38.3581 18.544 38.3581V40.3581ZM29.08 22.2701C29.08 16.6609 28.3504 12.2181 26.8035 9.03324L25.0045 9.90705C26.3589 12.6955 27.08 16.7861 27.08 22.2701H29.08ZM26.8085 9.04372C26.037 7.40723 24.9697 6.12695 23.586 5.26214C22.2036 4.39815 20.5716 3.99014 18.736 3.99014V5.99014C20.271 5.99014 21.5191 6.3288 22.526 6.95814C23.5317 7.58667 24.363 8.54639 24.9995 9.89656L26.8085 9.04372ZM18.736 3.99014C16.9448 3.99014 15.3346 4.38114 13.9413 5.20001C12.5477 6.01907 11.4268 7.23347 10.5646 8.79472L12.3154 9.76156C13.0319 8.46414 13.9163 7.53454 14.9547 6.92427C15.9934 6.31381 17.2418 5.99014 18.736 5.99014V3.99014ZM10.5677 8.78913C8.86793 11.8212 8.072 16.0737 8.072 21.4381H10.072C10.072 16.2212 10.8547 12.3671 12.3123 9.76715L10.5677 8.78913ZM8.072 21.4381C8.072 26.9344 8.82719 31.4442 10.4016 34.9079L12.2224 34.0803C10.8101 30.9734 10.072 26.7792 10.072 21.4381H8.072ZM10.4083 34.9222C11.2353 36.6681 12.3279 38.0398 13.7139 38.9719C15.1052 39.9077 16.7294 40.3581 18.544 40.3581V38.3581C17.0732 38.3581 15.8495 37.9979 14.8301 37.3124C13.8054 36.6232 12.9247 35.5628 12.2157 34.0661L10.4083 34.9222ZM51.157 9.02214H52.157V7.57108L50.801 8.08765L51.157 9.02214ZM46.933 10.2381L47.1705 11.2095L46.933 10.2381ZM42.261 11.1981L41.2766 11.3739L41.4463 12.3247L42.4024 12.1881L42.261 11.1981ZM41.621 7.61414L41.4102 6.63662L40.467 6.84006L40.6366 7.78993L41.621 7.61414ZM48.277 5.24614L47.8432 4.34511L47.8366 4.34835L48.277 5.24614ZM54.037 1.59814V0.598141H53.6658L53.3845 0.840372L54.037 1.59814ZM54.101 1.59814L54.2628 0.611313L54.1824 0.598141H54.101V1.59814ZM58.005 2.23814H59.005V1.38873L58.1668 1.25131L58.005 2.23814ZM58.005 38.3341H57.005V39.2642L57.9326 39.3315L58.005 38.3341ZM65.941 38.9101H66.941V37.9801L66.0134 37.9128L65.941 38.9101ZM65.941 42.0461V43.0461H66.941V42.0461H65.941ZM42.901 42.0461H41.901V43.0461H42.901V42.0461ZM42.901 38.9101L42.8314 37.9126L41.901 37.9775V38.9101H42.901ZM51.157 38.3341L51.2266 39.3317L52.157 39.2668V38.3341H51.157ZM50.801 8.08765C49.966 8.40576 48.6081 8.79922 46.6955 9.26674L47.1705 11.2095C49.0979 10.7384 50.556 10.3212 51.513 9.95663L50.801 8.08765ZM46.6955 9.26674C44.79 9.73253 43.2682 10.0441 42.1196 10.2082L42.4024 12.1881C43.6431 12.0108 45.236 11.6824 47.1705 11.2095L46.6955 9.26674ZM43.2454 11.0224L42.6054 7.43835L40.6366 7.78993L41.2766 11.3739L43.2454 11.0224ZM41.8318 8.59166C44.0969 8.10311 46.3925 7.28447 48.7174 6.14393L47.8366 4.34835C45.6389 5.42648 43.4971 6.1865 41.4102 6.63662L41.8318 8.59166ZM48.7108 6.14714C51.0741 5.00925 53.0726 3.74829 54.6895 2.35591L53.3845 0.840372C51.9294 2.09332 50.0879 3.26436 47.8432 4.34514L48.7108 6.14714ZM54.037 2.59814H54.101V0.598141H54.037V2.59814ZM53.9392 2.58497L57.8432 3.22497L58.1668 1.25131L54.2628 0.611313L53.9392 2.58497ZM57.005 2.23814V38.3341H59.005V2.23814H57.005ZM57.9326 39.3315L65.8686 39.9075L66.0134 37.9128L58.0774 37.3368L57.9326 39.3315ZM64.941 38.9101V42.0461H66.941V38.9101H64.941ZM65.941 41.0461H42.901V43.0461H65.941V41.0461ZM43.901 42.0461V38.9101H41.901V42.0461H43.901ZM42.9706 39.9077L51.2266 39.3317L51.0874 37.3366L42.8314 37.9126L42.9706 39.9077ZM52.157 38.3341V9.02214H50.157V38.3341H52.157Z" fill="#020E35" mask="url(#path-1-outside-1_16_154)"/>
</svg>
