<svg width="77" height="44" viewBox="0 0 77 44" fill="none" xmlns="http://www.w3.org/2000/svg">
<mask id="path-1-outside-1_16_159" maskUnits="userSpaceOnUse" x="0" y="0.0461426" width="77" height="44" fill="black">
<rect fill="white" y="0.0461426" width="77" height="44"/>
<path d="M18.288 42.6221C12.8267 42.6221 8.73067 40.7448 6 36.9901C3.312 33.1928 1.968 28.3075 1.968 22.3341C1.968 18.1528 2.736 14.5048 4.272 11.3901C5.808 8.23281 7.89867 5.82214 10.544 4.15814C13.1893 2.49414 16.0907 1.66214 19.248 1.66214C24.7947 1.66214 28.848 3.45414 31.408 7.03814C33.968 10.5795 35.248 15.4435 35.248 21.6301C35.248 25.7688 34.5013 29.4381 33.008 32.6381C31.5573 35.7955 29.5307 38.2488 26.928 39.9981C24.368 41.7475 21.488 42.6221 18.288 42.6221ZM18.544 39.3581C24.9013 39.3581 28.08 33.6621 28.08 22.2701C28.08 16.7235 27.3547 12.4568 25.904 9.47014C24.496 6.48347 22.1067 4.99014 18.736 4.99014C15.4507 4.99014 13.0187 6.41947 11.44 9.27814C9.86133 12.0941 9.072 16.1475 9.072 21.4381C9.072 26.8568 9.81867 31.2088 11.312 34.4941C12.848 37.7368 15.2587 39.3581 18.544 39.3581ZM42.133 39.3581C46.0583 37.1395 49.6637 34.6008 52.949 31.7421C56.2343 28.8408 58.837 25.8541 60.757 22.7821C62.7197 19.7101 63.701 16.8088 63.701 14.0781C63.701 11.7315 62.997 9.87547 61.589 8.51014C60.181 7.10214 58.1757 6.39814 55.573 6.39814C53.141 6.39814 51.0503 6.88881 49.301 7.87014C47.5517 8.80881 45.9303 9.98214 44.437 11.3901L42.389 8.51014C43.8823 6.76081 46.0157 5.18214 48.789 3.77414C51.5623 2.32347 54.5277 1.59814 57.685 1.59814C60.6717 1.59814 63.189 2.15281 65.237 3.26214C67.285 4.32881 68.7997 5.73681 69.781 7.48614C70.7623 9.23547 71.253 11.1555 71.253 13.2461C71.253 17.4701 69.2263 21.8221 65.173 26.3021C61.1197 30.7395 56.0423 34.7288 49.941 38.2701L69.781 36.7981L72.021 31.2941L75.285 31.9341L73.621 42.0461H43.093L42.133 39.3581Z"/>
</mask>
<path d="M6 36.9901L5.18373 37.568L5.19126 37.5783L6 36.9901ZM4.272 11.3901L5.16888 11.8324L5.17124 11.8276L4.272 11.3901ZM10.544 4.15814L11.0765 5.0046H11.0765L10.544 4.15814ZM31.408 7.03814L30.5943 7.61939L30.5976 7.62399L31.408 7.03814ZM33.008 32.6381L32.1018 32.2153L32.0993 32.2206L33.008 32.6381ZM26.928 39.9981L26.3701 39.1682L26.3638 39.1725L26.928 39.9981ZM25.904 9.47014L24.9994 9.89659L25.0045 9.90705L25.904 9.47014ZM11.44 9.27814L12.3123 9.76716L12.3154 9.76156L11.44 9.27814ZM11.312 34.4941L10.4016 34.9079L10.4049 34.9151L10.4083 34.9222L11.312 34.4941ZM18.288 41.6221C13.0824 41.6221 9.31641 39.85 6.80874 36.402L5.19126 37.5783C8.14492 41.6396 12.5709 43.6221 18.288 43.6221V41.6221ZM6.81621 36.4124C4.27774 32.8263 2.968 28.1592 2.968 22.3341H0.968C0.968 28.4557 2.34626 33.5593 5.1838 37.5679L6.81621 36.4124ZM2.968 22.3341C2.968 18.2753 3.71318 14.7843 5.16887 11.8324L3.37513 10.9478C1.75882 14.2254 0.968 18.0303 0.968 22.3341H2.968ZM5.17124 11.8276C6.63592 8.81686 8.6081 6.55728 11.0765 5.0046L10.0115 3.31168C7.18924 5.08701 4.98008 7.64876 3.37277 10.9527L5.17124 11.8276ZM11.0765 5.0046C13.5606 3.44201 16.277 2.66214 19.248 2.66214V0.66214C15.9043 0.66214 12.8181 1.54628 10.0115 3.31168L11.0765 5.0046ZM19.248 2.66214C24.5652 2.66214 28.2704 4.366 30.5943 7.61938L32.2217 6.4569C29.4256 2.54228 25.0241 0.66214 19.248 0.66214V2.66214ZM30.5976 7.62399C32.9926 10.9371 34.248 15.5692 34.248 21.6301H36.248C36.248 15.3177 34.9434 10.2218 32.2184 6.45229L30.5976 7.62399ZM34.248 21.6301C34.248 25.6476 33.5236 29.1685 32.1018 32.2153L33.9142 33.061C35.4791 29.7077 36.248 25.89 36.248 21.6301H34.248ZM32.0993 32.2206C30.7169 35.2294 28.804 37.5323 26.3702 39.1682L27.4858 40.8281C30.2573 38.9653 32.3978 36.3615 33.9167 33.0556L32.0993 32.2206ZM26.3638 39.1725C23.9756 40.8044 21.2935 41.6221 18.288 41.6221V43.6221C21.6825 43.6221 24.7604 42.6905 27.4922 40.8238L26.3638 39.1725ZM18.544 40.3581C20.2873 40.3581 21.8604 39.966 23.2288 39.1487C24.5959 38.3321 25.7041 37.1237 26.5692 35.5735C28.2826 32.5032 29.08 28.0264 29.08 22.2701H27.08C27.08 27.9059 26.2881 31.9731 24.8228 34.5988C24.0986 35.8966 23.2201 36.8242 22.2032 37.4316C21.1876 38.0383 19.9794 38.3581 18.544 38.3581V40.3581ZM29.08 22.2701C29.08 16.6609 28.3504 12.2181 26.8035 9.03324L25.0045 9.90705C26.3589 12.6955 27.08 16.7861 27.08 22.2701H29.08ZM26.8085 9.04372C26.037 7.40723 24.9697 6.12695 23.586 5.26214C22.2036 4.39815 20.5716 3.99014 18.736 3.99014V5.99014C20.271 5.99014 21.5191 6.3288 22.526 6.95814C23.5317 7.58667 24.363 8.54639 24.9995 9.89656L26.8085 9.04372ZM18.736 3.99014C16.9448 3.99014 15.3346 4.38114 13.9413 5.20001C12.5477 6.01907 11.4268 7.23347 10.5646 8.79472L12.3154 9.76156C13.0319 8.46414 13.9163 7.53454 14.9547 6.92427C15.9934 6.31381 17.2418 5.99014 18.736 5.99014V3.99014ZM10.5677 8.78913C8.86793 11.8212 8.072 16.0737 8.072 21.4381H10.072C10.072 16.2212 10.8547 12.3671 12.3123 9.76715L10.5677 8.78913ZM8.072 21.4381C8.072 26.9344 8.82719 31.4442 10.4016 34.9079L12.2224 34.0803C10.8101 30.9734 10.072 26.7792 10.072 21.4381H8.072ZM10.4083 34.9222C11.2353 36.6681 12.3279 38.0398 13.7139 38.9719C15.1052 39.9077 16.7294 40.3581 18.544 40.3581V38.3581C17.0732 38.3581 15.8495 37.9979 14.8301 37.3124C13.8054 36.6232 12.9247 35.5628 12.2157 34.0661L10.4083 34.9222ZM42.133 39.3581L41.6409 38.4876L40.9081 38.9018L41.1913 39.6945L42.133 39.3581ZM52.949 31.7421L53.6054 32.4966L53.6109 32.4917L52.949 31.7421ZM60.757 22.7821L59.9143 22.2437L59.909 22.2521L60.757 22.7821ZM61.589 8.51014L60.8819 9.21725L60.8873 9.22268L60.8929 9.22804L61.589 8.51014ZM49.301 7.87014L49.7738 8.7513L49.7821 8.74687L49.7903 8.74228L49.301 7.87014ZM44.437 11.3901L43.622 11.9697L44.2875 12.9055L45.123 12.1177L44.437 11.3901ZM42.389 8.51014L41.6284 7.86088L41.1221 8.45406L41.574 9.08966L42.389 8.51014ZM48.789 3.77414L49.2417 4.66587L49.2525 4.66024L48.789 3.77414ZM65.237 3.26214L64.7607 4.14143L64.7679 4.1453L64.7751 4.14906L65.237 3.26214ZM65.173 26.3021L65.9113 26.9766L65.9145 26.9731L65.173 26.3021ZM49.941 38.2701L49.439 37.4053L50.015 39.2674L49.941 38.2701ZM69.781 36.7981L69.855 37.7954L70.4735 37.7495L70.7072 37.1751L69.781 36.7981ZM72.021 31.2941L72.2134 30.3128L71.4052 30.1544L71.0948 30.9172L72.021 31.2941ZM75.285 31.9341L76.2717 32.0965L76.4292 31.1395L75.4774 30.9528L75.285 31.9341ZM73.621 42.0461V43.0461H74.4699L74.6077 42.2085L73.621 42.0461ZM43.093 42.0461L42.1513 42.3825L42.3883 43.0461H43.093V42.0461ZM42.6251 40.2287C46.6069 37.9781 50.2676 35.4009 53.6054 32.4965L52.2926 30.9877C49.0597 33.8007 45.5098 36.3008 41.6409 38.4876L42.6251 40.2287ZM53.6109 32.4917C56.9539 29.5394 59.6245 26.4809 61.605 23.3121L59.909 22.2521C58.0495 25.2273 55.5147 28.1422 52.2871 30.9926L53.6109 32.4917ZM61.5997 23.3205C63.6315 20.1403 64.701 17.0536 64.701 14.0781H62.701C62.701 16.564 61.8078 19.28 59.9143 22.2438L61.5997 23.3205ZM64.701 14.0781C64.701 11.5182 63.9249 9.38235 62.2851 7.79224L60.8929 9.22804C62.0691 10.3686 62.701 11.9448 62.701 14.0781H64.701ZM62.2961 7.80303C60.6481 6.15506 58.3562 5.39814 55.573 5.39814V7.39814C57.9952 7.39814 59.7139 8.04922 60.8819 9.21725L62.2961 7.80303ZM55.573 5.39814C53.0059 5.39814 50.7392 5.91673 48.8117 6.998L49.7903 8.74228C51.3614 7.86089 53.2761 7.39814 55.573 7.39814V5.39814ZM48.8282 6.98898C46.9987 7.97063 45.3061 9.19626 43.751 10.6626L45.123 12.1177C46.5545 10.768 48.1046 9.64699 49.7738 8.7513L48.8282 6.98898ZM45.252 10.8106L43.204 7.93062L41.574 9.08966L43.622 11.9697L45.252 10.8106ZM43.1496 9.1594C44.5328 7.539 46.547 6.03389 49.2417 4.66581L48.3363 2.88247C45.4843 4.3304 43.2318 5.98262 41.6284 7.86088L43.1496 9.1594ZM49.2525 4.66024C51.8815 3.28508 54.6876 2.59814 57.685 2.59814V0.598141C54.3677 0.598141 51.2432 1.36187 48.3255 2.88804L49.2525 4.66024ZM57.685 2.59814C60.5511 2.59814 62.8945 3.13058 64.7607 4.14143L65.7133 2.38285C63.4835 1.17504 60.7922 0.598141 57.685 0.598141V2.59814ZM64.7751 4.14906C66.6773 5.13982 68.0364 6.42021 68.9089 7.97539L70.6531 6.99689C69.5629 5.0534 67.8927 3.5178 65.6989 2.37523L64.7751 4.14906ZM68.9089 7.97539C69.8027 9.56885 70.253 11.3193 70.253 13.2461H72.253C72.253 10.9917 71.7219 8.9021 70.6531 6.99689L68.9089 7.97539ZM70.253 13.2461C70.253 17.1336 68.3895 21.2566 64.4315 25.6312L65.9145 26.9731C70.0632 22.3877 72.253 17.8067 72.253 13.2461H70.253ZM64.4347 25.6277C60.4607 29.9782 55.4672 33.9064 49.439 37.4053L50.443 39.135C56.6174 35.5512 61.7786 31.5008 65.9113 26.9766L64.4347 25.6277ZM50.015 39.2674L69.855 37.7954L69.707 35.8009L49.867 37.2729L50.015 39.2674ZM70.7072 37.1751L72.9472 31.6711L71.0948 30.9172L68.8548 36.4212L70.7072 37.1751ZM71.8286 32.2755L75.0926 32.9155L75.4774 30.9528L72.2134 30.3128L71.8286 32.2755ZM74.2983 31.7718L72.6343 41.8838L74.6077 42.2085L76.2717 32.0965L74.2983 31.7718ZM73.621 41.0461H43.093V43.0461H73.621V41.0461ZM44.0347 41.7098L43.0747 39.0218L41.1913 39.6945L42.1513 42.3825L44.0347 41.7098Z" fill="#020E35" mask="url(#path-1-outside-1_16_159)"/>
</svg>
