<svg width="73" height="54" viewBox="0 0 73 54" fill="none" xmlns="http://www.w3.org/2000/svg">
<mask id="path-1-outside-1_16_164" maskUnits="userSpaceOnUse" x="0" y="0.0461426" width="73" height="54" fill="black">
<rect fill="white" y="0.0461426" width="73" height="54"/>
<path d="M18.288 42.6221C12.8267 42.6221 8.73067 40.7448 6 36.9901C3.312 33.1928 1.968 28.3075 1.968 22.3341C1.968 18.1528 2.736 14.5048 4.272 11.3901C5.808 8.23281 7.89867 5.82214 10.544 4.15814C13.1893 2.49414 16.0907 1.66214 19.248 1.66214C24.7947 1.66214 28.848 3.45414 31.408 7.03814C33.968 10.5795 35.248 15.4435 35.248 21.6301C35.248 25.7688 34.5013 29.4381 33.008 32.6381C31.5573 35.7955 29.5307 38.2488 26.928 39.9981C24.368 41.7475 21.488 42.6221 18.288 42.6221ZM18.544 39.3581C24.9013 39.3581 28.08 33.6621 28.08 22.2701C28.08 16.7235 27.3547 12.4568 25.904 9.47014C24.496 6.48347 22.1067 4.99014 18.736 4.99014C15.4507 4.99014 13.0187 6.41947 11.44 9.27814C9.86133 12.0941 9.072 16.1475 9.072 21.4381C9.072 26.8568 9.81867 31.2088 11.312 34.4941C12.848 37.7368 15.2587 39.3581 18.544 39.3581ZM49.173 52.3501C48.1917 52.3501 47.1037 52.2648 45.909 52.0941C44.7143 51.9661 43.7117 51.7955 42.901 51.5821V47.9341C44.309 48.3608 45.9943 48.5741 47.957 48.5741C51.3277 48.5741 54.229 48.0408 56.661 46.9741C59.1357 45.9075 61.013 44.4568 62.293 42.6221C63.6157 40.7875 64.277 38.7821 64.277 36.6061C64.277 33.7048 63.381 31.4648 61.589 29.8861C59.8397 28.2648 57.1303 27.4328 53.461 27.3901L51.477 27.9021C50.069 28.3288 49.3863 28.5208 49.429 28.4781L48.341 25.0861C50.133 24.7448 51.8183 24.2328 53.397 23.5501C56.0423 22.4408 58.1757 20.9688 59.797 19.1341C61.4183 17.2568 62.229 15.2728 62.229 13.1821C62.229 10.7501 61.5037 8.97947 60.053 7.87014C58.645 6.71814 56.8317 6.14214 54.613 6.14214C52.693 6.14214 50.837 6.48347 49.045 7.16614C47.2957 7.84881 45.781 8.68081 44.501 9.66214L42.773 6.78214C43.9677 5.58747 45.8663 4.43547 48.469 3.32614C51.1143 2.17414 53.8023 1.59814 56.533 1.59814C60.4157 1.59814 63.5517 2.45147 65.941 4.15814C68.3303 5.82214 69.525 8.38214 69.525 11.8381C69.525 14.8675 68.3303 17.6195 65.941 20.0941C63.5517 22.5688 60.7143 24.3821 57.429 25.5341C57.8557 25.4915 58.453 25.4701 59.221 25.4701C61.7383 25.4701 63.957 25.9395 65.877 26.8781C67.797 27.8168 69.269 29.0968 70.293 30.7181C71.3597 32.2968 71.893 34.0888 71.893 36.0941C71.893 39.2088 70.9543 42.0035 69.077 44.4781C67.1997 46.9528 64.533 48.8728 61.077 50.2381C57.6637 51.6461 53.6957 52.3501 49.173 52.3501Z"/>
</mask>
<path d="M6 36.9901L5.18373 37.568L5.19126 37.5783L6 36.9901ZM4.272 11.3901L5.16888 11.8324L5.17124 11.8276L4.272 11.3901ZM10.544 4.15814L11.0765 5.0046H11.0765L10.544 4.15814ZM31.408 7.03814L30.5943 7.61939L30.5976 7.62399L31.408 7.03814ZM33.008 32.6381L32.1018 32.2153L32.0993 32.2206L33.008 32.6381ZM26.928 39.9981L26.3701 39.1682L26.3638 39.1725L26.928 39.9981ZM25.904 9.47014L24.9994 9.89659L25.0045 9.90705L25.904 9.47014ZM11.44 9.27814L12.3123 9.76716L12.3154 9.76156L11.44 9.27814ZM11.312 34.4941L10.4016 34.9079L10.4049 34.9151L10.4083 34.9222L11.312 34.4941ZM18.288 41.6221C13.0824 41.6221 9.31641 39.85 6.80874 36.402L5.19126 37.5783C8.14492 41.6396 12.5709 43.6221 18.288 43.6221V41.6221ZM6.81621 36.4124C4.27774 32.8263 2.968 28.1592 2.968 22.3341H0.968C0.968 28.4557 2.34626 33.5593 5.1838 37.5679L6.81621 36.4124ZM2.968 22.3341C2.968 18.2753 3.71318 14.7843 5.16887 11.8324L3.37513 10.9478C1.75882 14.2254 0.968 18.0303 0.968 22.3341H2.968ZM5.17124 11.8276C6.63592 8.81686 8.6081 6.55728 11.0765 5.0046L10.0115 3.31168C7.18924 5.08701 4.98008 7.64876 3.37277 10.9527L5.17124 11.8276ZM11.0765 5.0046C13.5606 3.44201 16.277 2.66214 19.248 2.66214V0.66214C15.9043 0.66214 12.8181 1.54628 10.0115 3.31168L11.0765 5.0046ZM19.248 2.66214C24.5652 2.66214 28.2704 4.366 30.5943 7.61938L32.2217 6.4569C29.4256 2.54228 25.0241 0.66214 19.248 0.66214V2.66214ZM30.5976 7.62399C32.9926 10.9371 34.248 15.5692 34.248 21.6301H36.248C36.248 15.3177 34.9434 10.2218 32.2184 6.45229L30.5976 7.62399ZM34.248 21.6301C34.248 25.6476 33.5236 29.1685 32.1018 32.2153L33.9142 33.061C35.4791 29.7077 36.248 25.89 36.248 21.6301H34.248ZM32.0993 32.2206C30.7169 35.2294 28.804 37.5323 26.3702 39.1682L27.4858 40.8281C30.2573 38.9653 32.3978 36.3615 33.9167 33.0556L32.0993 32.2206ZM26.3638 39.1725C23.9756 40.8044 21.2935 41.6221 18.288 41.6221V43.6221C21.6825 43.6221 24.7604 42.6905 27.4922 40.8238L26.3638 39.1725ZM18.544 40.3581C20.2873 40.3581 21.8604 39.966 23.2288 39.1487C24.5959 38.3321 25.7041 37.1237 26.5692 35.5735C28.2826 32.5032 29.08 28.0264 29.08 22.2701H27.08C27.08 27.9059 26.2881 31.9731 24.8228 34.5988C24.0986 35.8966 23.2201 36.8242 22.2032 37.4316C21.1876 38.0383 19.9794 38.3581 18.544 38.3581V40.3581ZM29.08 22.2701C29.08 16.6609 28.3504 12.2181 26.8035 9.03324L25.0045 9.90705C26.3589 12.6955 27.08 16.7861 27.08 22.2701H29.08ZM26.8085 9.04372C26.037 7.40723 24.9697 6.12695 23.586 5.26214C22.2036 4.39815 20.5716 3.99014 18.736 3.99014V5.99014C20.271 5.99014 21.5191 6.3288 22.526 6.95814C23.5317 7.58667 24.363 8.54639 24.9995 9.89656L26.8085 9.04372ZM18.736 3.99014C16.9448 3.99014 15.3346 4.38114 13.9413 5.20001C12.5477 6.01907 11.4268 7.23347 10.5646 8.79472L12.3154 9.76156C13.0319 8.46414 13.9163 7.53454 14.9547 6.92427C15.9934 6.31381 17.2418 5.99014 18.736 5.99014V3.99014ZM10.5677 8.78913C8.86793 11.8212 8.072 16.0737 8.072 21.4381H10.072C10.072 16.2212 10.8547 12.3671 12.3123 9.76715L10.5677 8.78913ZM8.072 21.4381C8.072 26.9344 8.82719 31.4442 10.4016 34.9079L12.2224 34.0803C10.8101 30.9734 10.072 26.7792 10.072 21.4381H8.072ZM10.4083 34.9222C11.2353 36.6681 12.3279 38.0398 13.7139 38.9719C15.1052 39.9077 16.7294 40.3581 18.544 40.3581V38.3581C17.0732 38.3581 15.8495 37.9979 14.8301 37.3124C13.8054 36.6232 12.9247 35.5628 12.2157 34.0661L10.4083 34.9222ZM45.909 52.0941L46.0504 51.1042L46.033 51.1017L46.0155 51.0998L45.909 52.0941ZM42.901 51.5821H41.901V52.353L42.6465 52.5492L42.901 51.5821ZM42.901 47.9341L43.191 46.9771L41.901 46.5862V47.9341H42.901ZM56.661 46.9741L56.2652 46.0558L56.2593 46.0584L56.661 46.9741ZM62.293 42.6221L61.4818 42.0373L61.4773 42.0436L61.4729 42.05L62.293 42.6221ZM61.589 29.8861L60.9092 30.6196L60.9185 30.6282L60.928 30.6365L61.589 29.8861ZM53.461 27.3901L53.4726 26.3902L53.3398 26.3887L53.2111 26.4219L53.461 27.3901ZM51.477 27.9021L51.2271 26.9339L51.2069 26.9391L51.187 26.9451L51.477 27.9021ZM49.429 28.4781L50.1361 29.1852L50.5676 28.7538L50.3812 28.1727L49.429 28.4781ZM48.341 25.0861L48.1539 24.1038L47.0436 24.3153L47.3888 25.3916L48.341 25.0861ZM53.397 23.5501L53.0103 22.6279L53.0001 22.6323L53.397 23.5501ZM59.797 19.1341L60.5464 19.7964L60.5538 19.7878L59.797 19.1341ZM60.053 7.87014L59.4198 8.6441L59.4325 8.65451L59.4456 8.6645L60.053 7.87014ZM49.045 7.16614L48.689 6.23162L48.6815 6.23456L49.045 7.16614ZM44.501 9.66214L43.6435 10.1766L44.2201 11.1376L45.1094 10.4557L44.501 9.66214ZM42.773 6.78214L42.0659 6.07504L41.5138 6.62713L41.9155 7.29664L42.773 6.78214ZM48.469 3.32614L48.8611 4.24609L48.8683 4.24298L48.469 3.32614ZM65.941 4.15814L65.3597 4.97193L65.3695 4.97875L65.941 4.15814ZM65.941 20.0941L66.6604 20.7887L65.941 20.0941ZM57.429 25.5341L57.0981 24.5905L57.5285 26.5292L57.429 25.5341ZM65.877 26.8781L66.3162 25.9798L65.877 26.8781ZM70.293 30.7181L69.4475 31.2521L69.4558 31.2652L69.4644 31.278L70.293 30.7181ZM69.077 44.4781L69.8737 45.0825L69.077 44.4781ZM61.077 50.2381L60.7096 49.3081L60.7026 49.3108L60.6957 49.3137L61.077 50.2381ZM49.173 51.3501C48.2483 51.3501 47.2084 51.2696 46.0504 51.1042L45.7676 53.0841C46.9989 53.26 48.1351 53.3501 49.173 53.3501V51.3501ZM46.0155 51.0998C44.8514 50.9751 43.9018 50.8115 43.1555 50.6151L42.6465 52.5492C43.5216 52.7795 44.5773 52.9572 45.8025 53.0885L46.0155 51.0998ZM43.901 51.5821V47.9341H41.901V51.5821H43.901ZM42.611 48.8912C44.1384 49.354 45.9267 49.5741 47.957 49.5741V47.5741C46.062 47.5741 44.4796 47.3676 43.191 46.9771L42.611 48.8912ZM47.957 49.5741C51.43 49.5741 54.4748 49.0249 57.0627 47.8899L56.2593 46.0584C53.9832 47.0567 51.2253 47.5741 47.957 47.5741V49.5741ZM57.0568 47.8925C59.6672 46.7673 61.7067 45.2102 63.1131 43.1943L61.4729 42.05C60.3193 43.7034 58.6041 45.0476 56.2652 46.0558L57.0568 47.8925ZM63.1042 43.2069C64.5444 41.2092 65.277 39.0007 65.277 36.6061H63.277C63.277 38.5636 62.6869 40.3658 61.4818 42.0373L63.1042 43.2069ZM65.277 36.6061C65.277 33.4848 64.3033 30.9446 62.25 29.1358L60.928 30.6365C62.4587 31.985 63.277 33.9248 63.277 36.6061H65.277ZM62.2688 29.1527C60.2611 27.292 57.2612 26.4343 53.4726 26.3902L53.4494 28.3901C56.9994 28.4314 59.4182 29.2377 60.9092 30.6196L62.2688 29.1527ZM53.2111 26.4219L51.2271 26.9339L51.7269 28.8704L53.7109 28.3584L53.2111 26.4219ZM51.187 26.9451C50.4841 27.1581 49.9694 27.3103 49.6383 27.4035C49.4695 27.451 49.3624 27.4791 49.3058 27.4923C49.2668 27.5014 49.2874 27.4949 49.3324 27.4897C49.3468 27.4881 49.3792 27.4847 49.4218 27.4841C49.4465 27.4837 49.5589 27.4815 49.6971 27.5199C49.7613 27.5377 50.3586 27.7141 50.4226 28.3867C50.4489 28.6624 50.3556 28.8705 50.2978 28.9726C50.2377 29.0786 50.1715 29.1499 50.1361 29.1852L48.7219 27.771C48.6852 27.8077 48.6179 27.8802 48.5573 27.9874C48.4989 28.0906 48.4053 28.2996 48.4316 28.5763C48.4958 29.2506 49.0947 29.4283 49.1619 29.4469C49.3031 29.4862 49.4199 29.4843 49.4504 29.4839C49.4989 29.4832 49.5385 29.4792 49.5616 29.4766C49.6413 29.4674 49.7192 29.4496 49.7602 29.44C49.8636 29.4159 50.0072 29.3773 50.1797 29.3288C50.5312 29.2299 51.0619 29.0728 51.767 28.8592L51.187 26.9451ZM50.3812 28.1727L49.2932 24.7807L47.3888 25.3916L48.4768 28.7836L50.3812 28.1727ZM48.5281 26.0685C50.3879 25.7142 52.1439 25.1815 53.7939 24.468L53.0001 22.6323C51.4927 23.2841 49.8781 23.7754 48.1539 24.1038L48.5281 26.0685ZM53.7837 24.4723C56.5443 23.3147 58.8095 21.7617 60.5463 19.7963L59.0477 18.4719C57.5418 20.1759 55.5404 21.5669 53.0103 22.6279L53.7837 24.4723ZM60.5538 19.7878C62.3013 17.7644 63.229 15.556 63.229 13.1821H61.229C61.229 14.9896 60.5354 16.7492 59.0402 18.4805L60.5538 19.7878ZM63.229 13.1821C63.229 10.5504 62.4355 8.43318 60.6604 7.07578L59.4456 8.6645C60.5718 9.52577 61.229 10.9499 61.229 13.1821H63.229ZM60.6862 7.09618C59.0628 5.76793 57.0101 5.14214 54.613 5.14214V7.14214C56.6533 7.14214 58.2272 7.66835 59.4198 8.6441L60.6862 7.09618ZM54.613 5.14214C52.5715 5.14214 50.5948 5.50562 48.689 6.23165L49.401 8.10063C51.0792 7.46133 52.8145 7.14214 54.613 7.14214V5.14214ZM48.6815 6.23456C46.8584 6.94599 45.2584 7.82142 43.8926 8.86853L45.1094 10.4557C46.3036 9.5402 47.7329 8.75163 49.4085 8.09772L48.6815 6.23456ZM45.3585 9.14764L43.6305 6.26765L41.9155 7.29664L43.6435 10.1766L45.3585 9.14764ZM43.4801 7.48925C44.5434 6.42594 46.3075 5.3345 48.8611 4.24607L48.0769 2.40622C45.4252 3.53645 43.3919 4.749 42.0659 6.07504L43.4801 7.48925ZM48.8683 4.24298C51.3949 3.14267 53.9474 2.59814 56.533 2.59814V0.598141C53.6572 0.598141 50.8338 1.20561 48.0697 2.40931L48.8683 4.24298ZM56.533 2.59814C60.2738 2.59814 63.1871 3.42 65.3598 4.97188L66.5222 3.34441C63.9162 1.48294 60.5576 0.598141 56.533 0.598141V2.59814ZM65.3695 4.97875C67.4377 6.41908 68.525 8.63936 68.525 11.8381H70.525C70.525 8.12492 69.223 5.2252 66.5125 3.33754L65.3695 4.97875ZM68.525 11.8381C68.525 14.5726 67.4573 17.084 65.2216 19.3995L66.6604 20.7887C69.2033 18.155 70.525 15.1623 70.525 11.8381H68.525ZM65.2216 19.3995C62.9419 21.7606 60.2381 23.4894 57.0981 24.5905L57.7599 26.4778C61.1905 25.2749 64.1614 23.377 66.6604 20.7887L65.2216 19.3995ZM57.5285 26.5292C57.906 26.4914 58.4647 26.4701 59.221 26.4701V24.4701C58.4413 24.4701 57.8053 24.4915 57.3295 24.5391L57.5285 26.5292ZM59.221 26.4701C61.613 26.4701 63.6768 26.9156 65.4378 27.7765L66.3162 25.9798C64.2372 24.9633 61.8637 24.4701 59.221 24.4701V26.4701ZM65.4378 27.7765C67.2108 28.6433 68.5336 29.8051 69.4475 31.2521L71.1385 30.1842C70.0044 28.3885 68.3832 26.9903 66.3162 25.9798L65.4378 27.7765ZM69.4644 31.278C70.4133 32.6824 70.893 34.2773 70.893 36.0941H72.893C72.893 33.9003 72.306 31.9112 71.1216 30.1583L69.4644 31.278ZM70.893 36.0941C70.893 38.9912 70.0253 41.5735 68.2803 43.8738L69.8737 45.0825C71.8833 42.4335 72.893 39.4264 72.893 36.0941H70.893ZM68.2803 43.8738C66.5336 46.1763 64.029 47.9967 60.7096 49.3081L61.4444 51.1682C65.037 49.7489 67.8658 47.7293 69.8737 45.0825L68.2803 43.8738ZM60.6957 49.3137C57.4272 50.662 53.5934 51.3501 49.173 51.3501V53.3501C53.7979 53.3501 57.9002 52.6303 61.4583 51.1626L60.6957 49.3137Z" fill="#020E35" mask="url(#path-1-outside-1_16_164)"/>
</svg>
