<svg width="81" height="57" viewBox="0 0 81 57" fill="none" xmlns="http://www.w3.org/2000/svg">
<mask id="path-1-outside-1_16_138" maskUnits="userSpaceOnUse" x="0" y="0.0461426" width="81" height="57" fill="black">
<rect fill="white" y="0.0461426" width="81" height="57"/>
<path d="M18.288 45.6221C12.8267 45.6221 8.73067 43.7448 6 39.9901C3.312 36.1928 1.968 31.3075 1.968 25.3341C1.968 21.1528 2.736 17.5048 4.272 14.3901C5.808 11.2328 7.89867 8.82214 10.544 7.15814C13.1893 5.49414 16.0907 4.66214 19.248 4.66214C24.7947 4.66214 28.848 6.45414 31.408 10.0381C33.968 13.5795 35.248 18.4435 35.248 24.6301C35.248 28.7688 34.5013 32.4381 33.008 35.6381C31.5573 38.7955 29.5307 41.2488 26.928 42.9981C24.368 44.7475 21.488 45.6221 18.288 45.6221ZM18.544 42.3581C24.9013 42.3581 28.08 36.6621 28.08 25.2701C28.08 19.7235 27.3547 15.4568 25.904 12.4701C24.496 9.48347 22.1067 7.99014 18.736 7.99014C15.4507 7.99014 13.0187 9.41947 11.44 12.2781C9.86133 15.0941 9.072 19.1475 9.072 24.4381C9.072 29.8568 9.81867 34.2088 11.312 37.4941C12.848 40.7368 15.2587 42.3581 18.544 42.3581ZM64.405 45.0461H43.157L41.493 42.1661C44.0103 37.3875 47.1037 31.0728 50.773 23.2221C54.4423 15.3288 57.7277 8.09681 60.629 1.52614H62.293L67.413 4.27814L50.133 37.5581L47.573 41.4621L64.405 40.5661L64.661 28.0861L70.101 27.6381V40.2461L79.125 39.7981V45.0461H70.101V55.3501H64.405V45.0461Z"/>
</mask>
<path d="M6 39.9901L5.18373 40.568L5.19126 40.5783L6 39.9901ZM4.272 14.3901L5.16888 14.8324L5.17124 14.8276L4.272 14.3901ZM10.544 7.15814L11.0765 8.0046H11.0765L10.544 7.15814ZM31.408 10.0381L30.5943 10.6194L30.5976 10.624L31.408 10.0381ZM33.008 35.6381L32.1018 35.2153L32.0993 35.2206L33.008 35.6381ZM26.928 42.9981L26.3701 42.1682L26.3638 42.1725L26.928 42.9981ZM25.904 12.4701L24.9994 12.8966L25.0045 12.907L25.904 12.4701ZM11.44 12.2781L12.3123 12.7672L12.3154 12.7616L11.44 12.2781ZM11.312 37.4941L10.4016 37.9079L10.4049 37.9151L10.4083 37.9222L11.312 37.4941ZM18.288 44.6221C13.0824 44.6221 9.31641 42.85 6.80874 39.402L5.19126 40.5783C8.14492 44.6396 12.5709 46.6221 18.288 46.6221V44.6221ZM6.81621 39.4124C4.27774 35.8263 2.968 31.1592 2.968 25.3341H0.968C0.968 31.4557 2.34626 36.5593 5.1838 40.5679L6.81621 39.4124ZM2.968 25.3341C2.968 21.2753 3.71318 17.7843 5.16887 14.8324L3.37513 13.9478C1.75882 17.2254 0.968 21.0303 0.968 25.3341H2.968ZM5.17124 14.8276C6.63592 11.8169 8.6081 9.55728 11.0765 8.0046L10.0115 6.31168C7.18924 8.08701 4.98008 10.6488 3.37277 13.9527L5.17124 14.8276ZM11.0765 8.0046C13.5606 6.44201 16.277 5.66214 19.248 5.66214V3.66214C15.9043 3.66214 12.8181 4.54628 10.0115 6.31168L11.0765 8.0046ZM19.248 5.66214C24.5652 5.66214 28.2704 7.366 30.5943 10.6194L32.2217 9.4569C29.4256 5.54228 25.0241 3.66214 19.248 3.66214V5.66214ZM30.5976 10.624C32.9926 13.9371 34.248 18.5692 34.248 24.6301H36.248C36.248 18.3177 34.9434 13.2218 32.2184 9.45229L30.5976 10.624ZM34.248 24.6301C34.248 28.6476 33.5236 32.1685 32.1018 35.2153L33.9142 36.061C35.4791 32.7077 36.248 28.89 36.248 24.6301H34.248ZM32.0993 35.2206C30.7169 38.2294 28.804 40.5323 26.3702 42.1682L27.4858 43.8281C30.2573 41.9653 32.3978 39.3615 33.9167 36.0556L32.0993 35.2206ZM26.3638 42.1725C23.9756 43.8044 21.2935 44.6221 18.288 44.6221V46.6221C21.6825 46.6221 24.7604 45.6905 27.4922 43.8238L26.3638 42.1725ZM18.544 43.3581C20.2873 43.3581 21.8604 42.966 23.2288 42.1487C24.5959 41.3321 25.7041 40.1237 26.5692 38.5735C28.2826 35.5032 29.08 31.0264 29.08 25.2701H27.08C27.08 30.9059 26.2881 34.9731 24.8228 37.5988C24.0986 38.8966 23.2201 39.8242 22.2032 40.4316C21.1876 41.0383 19.9794 41.3581 18.544 41.3581V43.3581ZM29.08 25.2701C29.08 19.6609 28.3504 15.2181 26.8035 12.0332L25.0045 12.907C26.3589 15.6955 27.08 19.7861 27.08 25.2701H29.08ZM26.8085 12.0437C26.037 10.4072 24.9697 9.12695 23.586 8.26214C22.2036 7.39815 20.5716 6.99014 18.736 6.99014V8.99014C20.271 8.99014 21.5191 9.3288 22.526 9.95814C23.5317 10.5867 24.363 11.5464 24.9995 12.8966L26.8085 12.0437ZM18.736 6.99014C16.9448 6.99014 15.3346 7.38114 13.9413 8.20001C12.5477 9.01907 11.4268 10.2335 10.5646 11.7947L12.3154 12.7616C13.0319 11.4641 13.9163 10.5345 14.9547 9.92427C15.9934 9.31381 17.2418 8.99014 18.736 8.99014V6.99014ZM10.5677 11.7891C8.86793 14.8212 8.072 19.0737 8.072 24.4381H10.072C10.072 19.2212 10.8547 15.3671 12.3123 12.7671L10.5677 11.7891ZM8.072 24.4381C8.072 29.9344 8.82719 34.4442 10.4016 37.9079L12.2224 37.0803C10.8101 33.9734 10.072 29.7792 10.072 24.4381H8.072ZM10.4083 37.9222C11.2353 39.6681 12.3279 41.0398 13.7139 41.9719C15.1052 42.9077 16.7294 43.3581 18.544 43.3581V41.3581C17.0732 41.3581 15.8495 40.9979 14.8301 40.3124C13.8054 39.6232 12.9247 38.5628 12.2157 37.0661L10.4083 37.9222ZM64.405 45.0461H65.405V44.0461H64.405V45.0461ZM43.157 45.0461L42.2911 45.5464L42.5799 46.0461H43.157V45.0461ZM41.493 42.1661L40.6083 41.7001L40.351 42.1885L40.6271 42.6664L41.493 42.1661ZM50.773 23.2221L51.6789 23.6456L51.6798 23.6437L50.773 23.2221ZM60.629 1.52614V0.526142H59.9774L59.7142 1.12221L60.629 1.52614ZM62.293 1.52614L62.7664 0.645318L62.5447 0.526142H62.293V1.52614ZM67.413 4.27814L68.3005 4.73896L68.7548 3.86405L67.8864 3.39732L67.413 4.27814ZM50.133 37.5581L50.9692 38.1065L50.9971 38.064L51.0205 38.019L50.133 37.5581ZM47.573 41.4621L46.7368 40.9138L45.6535 42.5657L47.6262 42.4607L47.573 41.4621ZM64.405 40.5661L64.4582 41.5647L65.3857 41.5154L65.4048 40.5867L64.405 40.5661ZM64.661 28.0861L64.5789 27.0895L63.6797 27.1636L63.6612 28.0656L64.661 28.0861ZM70.101 27.6381H71.101V26.5524L70.0189 26.6415L70.101 27.6381ZM70.101 40.2461H69.101V41.297L70.1506 41.2449L70.101 40.2461ZM79.125 39.7981H80.125V38.7473L79.0754 38.7994L79.125 39.7981ZM79.125 45.0461V46.0461H80.125V45.0461H79.125ZM70.101 45.0461V44.0461H69.101V45.0461H70.101ZM70.101 55.3501V56.3501H71.101V55.3501H70.101ZM64.405 55.3501H63.405V56.3501H64.405V55.3501ZM64.405 44.0461H43.157V46.0461H64.405V44.0461ZM44.0229 44.5459L42.3589 41.6659L40.6271 42.6664L42.2911 45.5464L44.0229 44.5459ZM42.3777 42.6322C44.9055 37.8337 48.0064 31.5032 51.6789 23.6456L49.8671 22.7987C46.201 30.6425 43.1152 36.9412 40.6083 41.7001L42.3777 42.6322ZM51.6798 23.6437C55.3513 15.7457 58.6394 8.50771 61.5438 1.93007L59.7142 1.12221C56.816 7.6859 53.5334 14.9119 49.8662 22.8006L51.6798 23.6437ZM60.629 2.52614H62.293V0.526142H60.629V2.52614ZM61.8196 2.40697L66.9396 5.15897L67.8864 3.39732L62.7664 0.645318L61.8196 2.40697ZM66.5255 3.81733L49.2455 37.0973L51.0205 38.019L68.3005 4.73896L66.5255 3.81733ZM49.2968 37.0098L46.7368 40.9138L48.4092 42.0105L50.9692 38.1065L49.2968 37.0098ZM47.6262 42.4607L64.4582 41.5647L64.3518 39.5676L47.5198 40.4636L47.6262 42.4607ZM65.4048 40.5867L65.6608 28.1067L63.6612 28.0656L63.4052 40.5456L65.4048 40.5867ZM64.7431 29.0828L70.1831 28.6348L70.0189 26.6415L64.5789 27.0895L64.7431 29.0828ZM69.101 27.6381V40.2461H71.101V27.6381H69.101ZM70.1506 41.2449L79.1746 40.7969L79.0754 38.7994L70.0514 39.2474L70.1506 41.2449ZM78.125 39.7981V45.0461H80.125V39.7981H78.125ZM79.125 44.0461H70.101V46.0461H79.125V44.0461ZM69.101 45.0461V55.3501H71.101V45.0461H69.101ZM70.101 54.3501H64.405V56.3501H70.101V54.3501ZM65.405 55.3501V45.0461H63.405V55.3501H65.405Z" fill="#020E35" mask="url(#path-1-outside-1_16_138)"/>
</svg>
