<svg width="74" height="55" viewBox="0 0 74 55" fill="none" xmlns="http://www.w3.org/2000/svg">
<mask id="path-1-outside-1_16_143" maskUnits="userSpaceOnUse" x="0" y="0.0461426" width="74" height="55" fill="black">
<rect fill="white" y="0.0461426" width="74" height="55"/>
<path d="M18.288 43.6221C12.8267 43.6221 8.73067 41.7448 6 37.9901C3.312 34.1928 1.968 29.3075 1.968 23.3341C1.968 19.1528 2.736 15.5048 4.272 12.3901C5.808 9.23281 7.89867 6.82214 10.544 5.15814C13.1893 3.49414 16.0907 2.66214 19.248 2.66214C24.7947 2.66214 28.848 4.45414 31.408 8.03814C33.968 11.5795 35.248 16.4435 35.248 22.6301C35.248 26.7688 34.5013 30.4381 33.008 33.6381C31.5573 36.7955 29.5307 39.2488 26.928 40.9981C24.368 42.7475 21.488 43.6221 18.288 43.6221ZM18.544 40.3581C24.9013 40.3581 28.08 34.6621 28.08 23.2701C28.08 17.7235 27.3547 13.4568 25.904 10.4701C24.496 7.48347 22.1067 5.99014 18.736 5.99014C15.4507 5.99014 13.0187 7.41947 11.44 10.2781C9.86133 13.0941 9.072 17.1475 9.072 22.4381C9.072 27.8568 9.81867 32.2088 11.312 35.4941C12.848 38.7368 15.2587 40.3581 18.544 40.3581ZM45.141 49.8301C46.3357 49.9581 47.6157 50.0221 48.981 50.0221C52.0103 50.0221 54.7837 49.4035 57.301 48.1661C59.8183 46.9288 61.8023 45.2221 63.253 43.0461C64.7037 40.8701 65.429 38.3955 65.429 35.6221C65.429 28.7528 62.2503 25.3181 55.893 25.3181C54.485 25.3181 52.9063 25.5315 51.157 25.9581C49.4503 26.3421 47.957 26.8115 46.677 27.3661L44.949 26.1501L48.085 3.11014H66.325L66.965 1.89414H70.933L69.781 8.48614H52.821L49.877 23.3981C51.029 22.8008 52.501 22.2675 54.293 21.7981C56.085 21.3288 57.877 21.0941 59.669 21.0941C63.765 21.0941 66.9863 22.2461 69.333 24.5501C71.6797 26.8541 72.853 30.2035 72.853 34.5981C72.853 37.9688 71.8717 41.0835 69.909 43.9421C67.989 46.8008 65.2583 49.0835 61.717 50.7901C58.1757 52.4968 54.1437 53.3501 49.621 53.3501C47.7863 53.3501 46.293 53.2008 45.141 52.9021V49.8301Z"/>
</mask>
<path d="M6 37.9901L5.18373 38.568L5.19126 38.5783L6 37.9901ZM4.272 12.3901L5.16888 12.8324L5.17124 12.8276L4.272 12.3901ZM10.544 5.15814L11.0765 6.0046H11.0765L10.544 5.15814ZM31.408 8.03814L30.5943 8.61939L30.5976 8.62399L31.408 8.03814ZM33.008 33.6381L32.1018 33.2153L32.0993 33.2206L33.008 33.6381ZM26.928 40.9981L26.3701 40.1682L26.3638 40.1725L26.928 40.9981ZM25.904 10.4701L24.9994 10.8966L25.0045 10.907L25.904 10.4701ZM11.44 10.2781L12.3123 10.7672L12.3154 10.7616L11.44 10.2781ZM11.312 35.4941L10.4016 35.9079L10.4049 35.9151L10.4083 35.9222L11.312 35.4941ZM18.288 42.6221C13.0824 42.6221 9.31641 40.85 6.80874 37.402L5.19126 38.5783C8.14492 42.6396 12.5709 44.6221 18.288 44.6221V42.6221ZM6.81621 37.4124C4.27774 33.8263 2.968 29.1592 2.968 23.3341H0.968C0.968 29.4557 2.34626 34.5593 5.1838 38.5679L6.81621 37.4124ZM2.968 23.3341C2.968 19.2753 3.71318 15.7843 5.16887 12.8324L3.37513 11.9478C1.75882 15.2254 0.968 19.0303 0.968 23.3341H2.968ZM5.17124 12.8276C6.63592 9.81686 8.6081 7.55728 11.0765 6.0046L10.0115 4.31168C7.18924 6.08701 4.98008 8.64876 3.37277 11.9527L5.17124 12.8276ZM11.0765 6.0046C13.5606 4.44201 16.277 3.66214 19.248 3.66214V1.66214C15.9043 1.66214 12.8181 2.54628 10.0115 4.31168L11.0765 6.0046ZM19.248 3.66214C24.5652 3.66214 28.2704 5.366 30.5943 8.61938L32.2217 7.4569C29.4256 3.54228 25.0241 1.66214 19.248 1.66214V3.66214ZM30.5976 8.62399C32.9926 11.9371 34.248 16.5692 34.248 22.6301H36.248C36.248 16.3177 34.9434 11.2218 32.2184 7.45229L30.5976 8.62399ZM34.248 22.6301C34.248 26.6476 33.5236 30.1685 32.1018 33.2153L33.9142 34.061C35.4791 30.7077 36.248 26.89 36.248 22.6301H34.248ZM32.0993 33.2206C30.7169 36.2294 28.804 38.5323 26.3702 40.1682L27.4858 41.8281C30.2573 39.9653 32.3978 37.3615 33.9167 34.0556L32.0993 33.2206ZM26.3638 40.1725C23.9756 41.8044 21.2935 42.6221 18.288 42.6221V44.6221C21.6825 44.6221 24.7604 43.6905 27.4922 41.8238L26.3638 40.1725ZM18.544 41.3581C20.2873 41.3581 21.8604 40.966 23.2288 40.1487C24.5959 39.3321 25.7041 38.1237 26.5692 36.5735C28.2826 33.5032 29.08 29.0264 29.08 23.2701H27.08C27.08 28.9059 26.2881 32.9731 24.8228 35.5988C24.0986 36.8966 23.2201 37.8242 22.2032 38.4316C21.1876 39.0383 19.9794 39.3581 18.544 39.3581V41.3581ZM29.08 23.2701C29.08 17.6609 28.3504 13.2181 26.8035 10.0332L25.0045 10.907C26.3589 13.6955 27.08 17.7861 27.08 23.2701H29.08ZM26.8085 10.0437C26.037 8.40723 24.9697 7.12695 23.586 6.26214C22.2036 5.39815 20.5716 4.99014 18.736 4.99014V6.99014C20.271 6.99014 21.5191 7.3288 22.526 7.95814C23.5317 8.58667 24.363 9.54639 24.9995 10.8966L26.8085 10.0437ZM18.736 4.99014C16.9448 4.99014 15.3346 5.38114 13.9413 6.20001C12.5477 7.01907 11.4268 8.23347 10.5646 9.79472L12.3154 10.7616C13.0319 9.46414 13.9163 8.53454 14.9547 7.92427C15.9934 7.31381 17.2418 6.99014 18.736 6.99014V4.99014ZM10.5677 9.78913C8.86793 12.8212 8.072 17.0737 8.072 22.4381H10.072C10.072 17.2212 10.8547 13.3671 12.3123 10.7671L10.5677 9.78913ZM8.072 22.4381C8.072 27.9344 8.82719 32.4442 10.4016 35.9079L12.2224 35.0803C10.8101 31.9734 10.072 27.7792 10.072 22.4381H8.072ZM10.4083 35.9222C11.2353 37.6681 12.3279 39.0398 13.7139 39.9719C15.1052 40.9077 16.7294 41.3581 18.544 41.3581V39.3581C17.0732 39.3581 15.8495 38.9979 14.8301 38.3124C13.8054 37.6232 12.9247 36.5628 12.2157 35.0661L10.4083 35.9222ZM45.141 49.8301L45.2475 48.8358L44.141 48.7173V49.8301H45.141ZM57.301 48.1661L56.8599 47.2687L57.301 48.1661ZM63.253 43.0461L62.421 42.4914L63.253 43.0461ZM51.157 25.9581L51.3765 26.9338L51.3853 26.9318L51.394 26.9297L51.157 25.9581ZM46.677 27.3661L46.1015 28.1839L46.5601 28.5067L47.0746 28.2837L46.677 27.3661ZM44.949 26.1501L43.9581 26.0153L43.8761 26.6179L44.3735 26.9679L44.949 26.1501ZM48.085 3.11014V2.11014H47.2119L47.0941 2.97528L48.085 3.11014ZM66.325 3.11014V4.11014H66.9287L67.2099 3.57589L66.325 3.11014ZM66.965 1.89414V0.894142H66.3613L66.0801 1.42839L66.965 1.89414ZM70.933 1.89414L71.9181 2.06629L72.1229 0.894142H70.933V1.89414ZM69.781 8.48614V9.48614H70.6214L70.7661 8.65829L69.781 8.48614ZM52.821 8.48614V7.48614H51.9991L51.8399 8.29246L52.821 8.48614ZM49.877 23.3981L48.8959 23.2045L48.4937 25.2418L50.3373 24.2859L49.877 23.3981ZM54.293 21.7981L54.5464 22.7655L54.293 21.7981ZM69.333 24.5501L68.6324 25.2637L69.333 24.5501ZM69.909 43.9421L69.0846 43.3761L69.0789 43.3846L69.909 43.9421ZM45.141 52.9021H44.141V53.6759L44.89 53.8701L45.141 52.9021ZM45.0345 50.8245C46.2689 50.9567 47.5848 51.0221 48.981 51.0221V49.0221C47.6466 49.0221 46.4024 48.9596 45.2475 48.8358L45.0345 50.8245ZM48.981 51.0221C52.1508 51.0221 55.0768 50.3737 57.7421 49.0636L56.8599 47.2687C54.4906 48.4333 51.8699 49.0221 48.981 49.0221V51.0221ZM57.7421 49.0636C60.4058 47.7543 62.5295 45.9342 64.0851 43.6008L62.421 42.4914C61.0752 44.5101 59.2309 46.1033 56.8599 47.2687L57.7421 49.0636ZM64.0851 43.6008C65.652 41.2504 66.429 38.5803 66.429 35.6221H64.429C64.429 38.2106 63.7553 40.4899 62.421 42.4914L64.0851 43.6008ZM66.429 35.6221C66.429 32.0517 65.6045 29.1875 63.7789 27.2149C61.9398 25.2277 59.2465 24.3181 55.893 24.3181V26.3181C58.8968 26.3181 60.9715 27.126 62.3111 28.5734C63.6641 30.0354 64.429 32.3232 64.429 35.6221H66.429ZM55.893 24.3181C54.3866 24.3181 52.7266 24.546 50.92 24.9866L51.394 26.9297C53.0861 26.5169 54.5834 26.3181 55.893 26.3181V24.3181ZM50.9375 24.9825C49.1844 25.377 47.6291 25.8637 46.2794 26.4486L47.0746 28.2837C48.2849 27.7592 49.7163 27.3073 51.3765 26.9338L50.9375 24.9825ZM47.2525 26.5483L45.5245 25.3323L44.3735 26.9679L46.1015 28.1839L47.2525 26.5483ZM45.9399 26.285L49.0759 3.24501L47.0941 2.97528L43.9581 26.0153L45.9399 26.285ZM48.085 4.11014H66.325V2.11014H48.085V4.11014ZM67.2099 3.57589L67.8499 2.35989L66.0801 1.42839L65.4401 2.64439L67.2099 3.57589ZM66.965 2.89414H70.933V0.894142H66.965V2.89414ZM69.9479 1.72199L68.7959 8.31399L70.7661 8.65829L71.9181 2.06629L69.9479 1.72199ZM69.781 7.48614H52.821V9.48614H69.781V7.48614ZM51.8399 8.29246L48.8959 23.2045L50.8581 23.5918L53.8021 8.67983L51.8399 8.29246ZM50.3373 24.2859C51.4022 23.7338 52.7983 23.2233 54.5464 22.7655L54.0396 20.8308C52.2037 21.3116 50.6558 21.8679 49.4167 22.5104L50.3373 24.2859ZM54.5464 22.7655C56.2584 22.3171 57.9653 22.0941 59.669 22.0941V20.0941C57.7887 20.0941 55.9116 20.3405 54.0396 20.8308L54.5464 22.7655ZM59.669 22.0941C63.5708 22.0941 66.5161 23.1859 68.6324 25.2637L70.0336 23.8366C67.4566 21.3064 63.9592 20.0941 59.669 20.0941V22.0941ZM68.6324 25.2637C70.7298 27.323 71.853 30.3784 71.853 34.5981H73.853C73.853 30.0285 72.6295 26.3853 70.0336 23.8366L68.6324 25.2637ZM71.853 34.5981C71.853 37.7606 70.9364 40.679 69.0846 43.3761L70.7334 44.5081C72.8069 41.488 73.853 38.177 73.853 34.5981H71.853ZM69.0789 43.3846C67.2714 46.0757 64.6871 48.2487 61.2829 49.8893L62.1511 51.691C65.8296 49.9183 68.7066 47.5259 70.7391 44.4997L69.0789 43.3846ZM61.2829 49.8893C57.8959 51.5215 54.016 52.3501 49.621 52.3501V54.3501C54.2714 54.3501 58.4554 53.4721 62.1511 51.691L61.2829 49.8893ZM49.621 52.3501C47.8306 52.3501 46.4304 52.2034 45.392 51.9341L44.89 53.8701C46.1556 54.1982 47.7421 54.3501 49.621 54.3501V52.3501ZM46.141 52.9021V49.8301H44.141V52.9021H46.141Z" fill="#020E35" mask="url(#path-1-outside-1_16_143)"/>
</svg>
