<svg width="79" height="54" viewBox="0 0 79 54" fill="none" xmlns="http://www.w3.org/2000/svg">
<mask id="path-1-outside-1_16_148" maskUnits="userSpaceOnUse" x="0" y="0.0461426" width="79" height="54" fill="black">
<rect fill="white" y="0.0461426" width="79" height="54"/>
<path d="M18.288 52.6221C12.8267 52.6221 8.73067 50.7448 6 46.9901C3.312 43.1928 1.968 38.3075 1.968 32.3341C1.968 28.1528 2.736 24.5048 4.272 21.3901C5.808 18.2328 7.89867 15.8221 10.544 14.1581C13.1893 12.4941 16.0907 11.6621 19.248 11.6621C24.7947 11.6621 28.848 13.4541 31.408 17.0381C33.968 20.5795 35.248 25.4435 35.248 31.6301C35.248 35.7688 34.5013 39.4381 33.008 42.6381C31.5573 45.7955 29.5307 48.2488 26.928 49.9981C24.368 51.7475 21.488 52.6221 18.288 52.6221ZM18.544 49.3581C24.9013 49.3581 28.08 43.6621 28.08 32.2701C28.08 26.7235 27.3547 22.4568 25.904 19.4701C24.496 16.4835 22.1067 14.9901 18.736 14.9901C15.4507 14.9901 13.0187 16.4195 11.44 19.2781C9.86133 22.0941 9.072 26.1475 9.072 31.4381C9.072 36.8568 9.81867 41.2088 11.312 44.4941C12.848 47.7368 15.2587 49.3581 18.544 49.3581ZM60.565 52.7501C57.109 52.7501 54.1223 51.8968 51.605 50.1901C49.1303 48.4408 47.2317 46.0941 45.909 43.1501C44.629 40.1635 43.989 36.8568 43.989 33.2301C43.989 27.8541 45.2903 22.9048 47.893 18.3821C50.4957 13.8168 53.8237 10.0835 57.877 7.18214C61.973 4.23814 66.1543 2.42481 70.421 1.74214L71.893 4.49414C66.901 6.07281 62.6983 8.71814 59.285 12.4301C55.8717 16.0995 53.5463 20.2808 52.309 24.9741C53.3757 23.7368 54.8477 22.6915 56.725 21.8381C58.6023 20.9421 60.7783 20.4941 63.253 20.4941C67.6903 20.4941 71.0823 21.7955 73.429 24.3981C75.8183 27.0008 77.013 30.6061 77.013 35.2141C77.013 38.3288 76.3517 41.2301 75.029 43.9181C73.749 46.5635 71.8503 48.6968 69.333 50.3181C66.8583 51.9395 63.9357 52.7501 60.565 52.7501ZM61.333 24.4621C59.029 24.4621 56.981 24.9955 55.189 26.0621C53.397 27.0861 52.1597 28.1955 51.477 29.3901C51.3917 30.4141 51.349 31.2461 51.349 31.8861C51.221 37.0488 51.9037 41.2728 53.397 44.5581C54.8903 47.8435 57.4077 49.4861 60.949 49.4861C62.9117 49.4861 64.5757 48.8888 65.941 47.6941C67.3063 46.4568 68.309 44.8568 68.949 42.8941C69.6317 40.9315 69.973 38.8621 69.973 36.6861C69.973 32.4621 69.1837 29.3688 67.605 27.4061C66.069 25.4435 63.9783 24.4621 61.333 24.4621Z"/>
</mask>
<path d="M6 46.9901L5.18373 47.568L5.19126 47.5783L6 46.9901ZM4.272 21.3901L5.16888 21.8324L5.17124 21.8276L4.272 21.3901ZM10.544 14.1581L11.0765 15.0046H11.0765L10.544 14.1581ZM31.408 17.0381L30.5943 17.6194L30.5976 17.624L31.408 17.0381ZM33.008 42.6381L32.1018 42.2153L32.0993 42.2206L33.008 42.6381ZM26.928 49.9981L26.3701 49.1682L26.3638 49.1725L26.928 49.9981ZM25.904 19.4701L24.9994 19.8966L25.0045 19.907L25.904 19.4701ZM11.44 19.2781L12.3123 19.7672L12.3154 19.7616L11.44 19.2781ZM11.312 44.4941L10.4016 44.9079L10.4049 44.9151L10.4083 44.9222L11.312 44.4941ZM18.288 51.6221C13.0824 51.6221 9.31641 49.85 6.80874 46.402L5.19126 47.5783C8.14492 51.6396 12.5709 53.6221 18.288 53.6221V51.6221ZM6.81621 46.4124C4.27774 42.8263 2.968 38.1592 2.968 32.3341H0.968C0.968 38.4557 2.34626 43.5593 5.1838 47.5679L6.81621 46.4124ZM2.968 32.3341C2.968 28.2753 3.71318 24.7843 5.16887 21.8324L3.37513 20.9478C1.75882 24.2254 0.968 28.0303 0.968 32.3341H2.968ZM5.17124 21.8276C6.63592 18.8169 8.6081 16.5573 11.0765 15.0046L10.0115 13.3117C7.18924 15.087 4.98008 17.6488 3.37277 20.9527L5.17124 21.8276ZM11.0765 15.0046C13.5606 13.442 16.277 12.6621 19.248 12.6621V10.6621C15.9043 10.6621 12.8181 11.5463 10.0115 13.3117L11.0765 15.0046ZM19.248 12.6621C24.5652 12.6621 28.2704 14.366 30.5943 17.6194L32.2217 16.4569C29.4256 12.5423 25.0241 10.6621 19.248 10.6621V12.6621ZM30.5976 17.624C32.9926 20.9371 34.248 25.5692 34.248 31.6301H36.248C36.248 25.3177 34.9434 20.2218 32.2184 16.4523L30.5976 17.624ZM34.248 31.6301C34.248 35.6476 33.5236 39.1685 32.1018 42.2153L33.9142 43.061C35.4791 39.7077 36.248 35.89 36.248 31.6301H34.248ZM32.0993 42.2206C30.7169 45.2294 28.804 47.5323 26.3702 49.1682L27.4858 50.8281C30.2573 48.9653 32.3978 46.3615 33.9167 43.0556L32.0993 42.2206ZM26.3638 49.1725C23.9756 50.8044 21.2935 51.6221 18.288 51.6221V53.6221C21.6825 53.6221 24.7604 52.6905 27.4922 50.8238L26.3638 49.1725ZM18.544 50.3581C20.2873 50.3581 21.8604 49.966 23.2288 49.1487C24.5959 48.3321 25.7041 47.1237 26.5692 45.5735C28.2826 42.5032 29.08 38.0264 29.08 32.2701H27.08C27.08 37.9059 26.2881 41.9731 24.8228 44.5988C24.0986 45.8966 23.2201 46.8242 22.2032 47.4316C21.1876 48.0383 19.9794 48.3581 18.544 48.3581V50.3581ZM29.08 32.2701C29.08 26.6609 28.3504 22.2181 26.8035 19.0332L25.0045 19.907C26.3589 22.6955 27.08 26.7861 27.08 32.2701H29.08ZM26.8085 19.0437C26.037 17.4072 24.9697 16.1269 23.586 15.2621C22.2036 14.3981 20.5716 13.9901 18.736 13.9901V15.9901C20.271 15.9901 21.5191 16.3288 22.526 16.9581C23.5317 17.5867 24.363 18.5464 24.9995 19.8966L26.8085 19.0437ZM18.736 13.9901C16.9448 13.9901 15.3346 14.3811 13.9413 15.2C12.5477 16.0191 11.4268 17.2335 10.5646 18.7947L12.3154 19.7616C13.0319 18.4641 13.9163 17.5345 14.9547 16.9243C15.9934 16.3138 17.2418 15.9901 18.736 15.9901V13.9901ZM10.5677 18.7891C8.86793 21.8212 8.072 26.0737 8.072 31.4381H10.072C10.072 26.2212 10.8547 22.3671 12.3123 19.7671L10.5677 18.7891ZM8.072 31.4381C8.072 36.9344 8.82719 41.4442 10.4016 44.9079L12.2224 44.0803C10.8101 40.9734 10.072 36.7792 10.072 31.4381H8.072ZM10.4083 44.9222C11.2353 46.6681 12.3279 48.0398 13.7139 48.9719C15.1052 49.9077 16.7294 50.3581 18.544 50.3581V48.3581C17.0732 48.3581 15.8495 47.9979 14.8301 47.3124C13.8054 46.6232 12.9247 45.5628 12.2157 44.0661L10.4083 44.9222ZM51.605 50.1901L51.0278 51.0067L51.0357 51.0124L51.0438 51.0179L51.605 50.1901ZM45.909 43.1501L44.9899 43.5441L44.9933 43.552L44.9968 43.56L45.909 43.1501ZM47.893 18.3821L48.7597 18.8809L48.7617 18.8774L47.893 18.3821ZM57.877 7.18214L58.459 7.9953L58.4606 7.99416L57.877 7.18214ZM70.421 1.74214L71.3028 1.27049L70.9667 0.642115L70.263 0.754701L70.421 1.74214ZM71.893 4.49414L72.1945 5.4476L73.3428 5.08446L72.7748 4.02249L71.893 4.49414ZM59.285 12.4301L60.0172 13.1113L60.0211 13.107L59.285 12.4301ZM52.309 24.9741L51.342 24.7192L53.0664 25.6271L52.309 24.9741ZM56.725 21.8381L57.1388 22.7485L57.1473 22.7446L57.1557 22.7406L56.725 21.8381ZM73.429 24.3981L72.6863 25.0678L72.6923 25.0744L73.429 24.3981ZM75.029 43.9181L74.1317 43.4766L74.1288 43.4826L75.029 43.9181ZM69.333 50.3181L68.7915 49.4774L68.785 49.4817L69.333 50.3181ZM55.189 26.0621L55.6851 26.9304L55.6929 26.926L55.7005 26.9214L55.189 26.0621ZM51.477 29.3901L50.6088 28.894L50.4989 29.0863L50.4805 29.3071L51.477 29.3901ZM51.349 31.8861L52.3487 31.9109L52.349 31.8985V31.8861H51.349ZM53.397 44.5581L52.4866 44.9719L53.397 44.5581ZM65.941 47.6941L66.5995 48.4467L66.6061 48.441L66.6125 48.4351L65.941 47.6941ZM68.949 42.8941L68.0045 42.5656L68.0013 42.5748L67.9983 42.5841L68.949 42.8941ZM67.605 27.4061L66.8174 28.0225L66.8258 28.0329L67.605 27.4061ZM60.565 51.7501C57.2809 51.7501 54.496 50.942 52.1662 49.3624L51.0438 51.0179C53.7487 52.8516 56.9371 53.7501 60.565 53.7501V51.7501ZM52.1822 49.3736C49.8631 47.7342 48.0755 45.5322 46.8212 42.7403L44.9968 43.56C46.3878 46.656 48.3975 49.1474 51.0278 51.0067L52.1822 49.3736ZM46.8281 42.7562C45.6074 39.9077 44.989 36.7371 44.989 33.2301H42.989C42.989 36.9765 43.6506 40.4192 44.9899 43.5441L46.8281 42.7562ZM44.989 33.2301C44.989 28.0237 46.2471 23.2471 48.7597 18.8809L47.0263 17.8834C44.3336 22.5625 42.989 27.6846 42.989 33.2301H44.989ZM48.7617 18.8774C51.2969 14.4305 54.5294 10.8081 58.459 7.99529L57.295 6.36899C53.1179 9.35888 49.6945 13.2031 47.0243 17.8869L48.7617 18.8774ZM58.4606 7.99416C62.4514 5.12577 66.4897 3.38387 70.579 2.72958L70.263 0.754701C65.819 1.46574 61.4946 3.35051 57.2934 6.37012L58.4606 7.99416ZM69.5392 2.21379L71.0112 4.96579L72.7748 4.02249L71.3028 1.27049L69.5392 2.21379ZM71.5915 3.54068C66.4396 5.16991 62.0851 7.90767 58.5489 11.7533L60.0211 13.107C63.3116 9.52861 67.3624 6.97571 72.1945 5.4476L71.5915 3.54068ZM58.5528 11.749C55.0311 15.5349 52.6227 19.8614 51.342 24.7192L53.276 25.2291C54.4699 20.7002 56.7122 16.6641 60.0172 13.1112L58.5528 11.749ZM53.0664 25.6271C54.0171 24.5242 55.3598 23.5571 57.1388 22.7485L56.3112 20.9278C54.3355 21.8258 52.7342 22.9494 51.5516 24.3212L53.0664 25.6271ZM57.1557 22.7406C58.8754 21.9199 60.8994 21.4941 63.253 21.4941V19.4941C60.6572 19.4941 58.3293 19.9644 56.2943 20.9357L57.1557 22.7406ZM63.253 21.4941C67.4878 21.4941 70.5773 22.7287 72.6863 25.0678L74.1717 23.7285C71.5874 20.8623 67.8929 19.4941 63.253 19.4941V21.4941ZM72.6923 25.0744C74.8659 27.442 76.013 30.7783 76.013 35.2141H78.013C78.013 30.434 76.7708 26.5596 74.1657 23.7219L72.6923 25.0744ZM76.013 35.2141C76.013 38.182 75.3841 40.9315 74.1317 43.4766L75.9263 44.3596C77.3192 41.5288 78.013 38.4756 78.013 35.2141H76.013ZM74.1288 43.4826C72.9305 45.9592 71.1574 47.9536 68.7915 49.4774L69.8745 51.1589C72.5433 49.44 74.5675 47.1677 75.9292 44.3537L74.1288 43.4826ZM68.785 49.4817C66.495 50.982 63.7689 51.7501 60.565 51.7501V53.7501C64.1025 53.7501 67.2216 52.897 69.881 51.1546L68.785 49.4817ZM61.333 23.4621C58.8684 23.4621 56.6401 24.0346 54.6775 25.2029L55.7005 26.9214C57.3219 25.9563 59.1896 25.4621 61.333 25.4621V23.4621ZM54.6929 25.1939C52.8177 26.2654 51.4136 27.4855 50.6088 28.894L52.3452 29.8863C52.9057 28.9055 53.9763 27.9069 55.6851 26.9304L54.6929 25.1939ZM50.4805 29.3071C50.394 30.3444 50.349 31.207 50.349 31.8861H52.349C52.349 31.2853 52.3893 30.4839 52.4735 29.4732L50.4805 29.3071ZM50.3493 31.8614C50.2191 37.1145 50.9098 41.5029 52.4866 44.9719L54.3074 44.1443C52.8976 41.0427 52.2229 36.9831 52.3487 31.9109L50.3493 31.8614ZM52.4866 44.9719C53.296 46.7525 54.4114 48.1473 55.8585 49.0916C57.3069 50.0367 59.0195 50.4861 60.949 50.4861V48.4861C59.3372 48.4861 58.0205 48.1142 56.9515 47.4167C55.8813 46.7183 54.9914 45.6491 54.3074 44.1443L52.4866 44.9719ZM60.949 50.4861C63.1324 50.4861 65.0364 49.8145 66.5995 48.4467L65.2825 46.9416C64.115 47.9632 62.6909 48.4861 60.949 48.4861V50.4861ZM66.6125 48.4351C68.1218 47.0673 69.2124 45.312 69.8997 43.2042L67.9983 42.5841C67.4056 44.4016 66.4908 45.8463 65.2695 46.9532L66.6125 48.4351ZM69.8935 43.2227C70.6146 41.1494 70.973 38.9687 70.973 36.6861H68.973C68.973 38.7556 68.6487 40.7135 68.0045 42.5656L69.8935 43.2227ZM70.973 36.6861C70.973 32.3754 70.1745 29.0051 68.3842 26.7794L66.8258 28.0329C68.1929 29.7325 68.973 32.5489 68.973 36.6861H70.973ZM68.3925 26.7898C66.6539 24.5683 64.264 23.4621 61.333 23.4621V25.4621C63.6926 25.4621 65.4841 26.3187 66.8175 28.0224L68.3925 26.7898Z" fill="#020E35" mask="url(#path-1-outside-1_16_148)"/>
</svg>
