<svg width="42" height="42" viewBox="0 0 42 42" fill="none" xmlns="http://www.w3.org/2000/svg">
<path d="M19.4419 17.6145L5.83774 31.2919C5.54859 31.5826 5.3192 31.9276 5.16266 32.3075C5.0062 32.6873 4.92557 33.0943 4.92557 33.5055C4.92557 33.9165 5.00602 34.3237 5.16248 34.7035C5.31894 35.0833 5.54833 35.4285 5.83749 35.7192C6.12655 36.0099 6.46983 36.2405 6.84764 36.3979C7.22537 36.5553 7.63028 36.6362 8.03922 36.6363C8.44815 36.6363 8.85307 36.5553 9.23088 36.398C9.60869 36.2408 9.95196 36.0102 10.2411 35.7195L15.9911 29.9386C16.2234 29.7646 16.5102 29.6804 16.7992 29.7014C17.0882 29.7222 17.36 29.847 17.5652 30.0526C17.7942 30.2817 17.9241 30.5924 17.9266 30.9173C17.929 31.2421 17.8037 31.5549 17.578 31.7873L13.369 36.019C12.785 36.6061 12.457 37.4024 12.457 38.2327C12.4571 39.063 12.7853 39.8592 13.3692 40.4463C13.9532 41.0333 14.7453 41.3631 15.5711 41.3631C16.397 41.363 17.189 41.0332 17.7729 40.446L29.5052 28.6501C29.6176 28.537 29.7511 28.4474 29.8981 28.3862C30.045 28.3249 30.2024 28.2935 30.3615 28.2935C30.5205 28.2935 30.6779 28.3249 30.8249 28.3862C30.9717 28.4474 31.1053 28.537 31.2177 28.6501C31.3302 28.7631 31.4193 28.8973 31.4802 29.045C31.5411 29.1927 31.5724 29.3511 31.5724 29.511C31.5724 29.6708 31.5411 29.8291 31.4802 29.9768C31.4193 30.1246 31.3302 30.2588 31.2177 30.3718L30.4932 31.0971C29.9093 31.6843 29.5813 32.4805 29.5814 33.3109C29.5814 34.1412 29.9095 34.9374 30.4936 35.5245C31.0775 36.1115 31.8696 36.4413 32.6955 36.4412C33.5213 36.4412 34.3132 36.1113 34.8972 35.5242L39.8179 30.577C40.4019 29.99 40.73 29.1937 40.7301 28.3634C40.7301 27.5331 40.4021 26.7368 39.8182 26.1497C39.2342 25.5625 38.4423 25.2327 37.6164 25.2326C36.7905 25.2326 35.9985 25.5623 35.4145 26.1494L34.7005 26.8698C34.4733 27.098 34.1652 27.2263 33.8439 27.2263C33.5227 27.2262 33.2147 27.0979 32.9876 26.8694C32.7604 26.6411 32.633 26.3313 32.633 26.0084C32.633 25.6854 32.7607 25.3757 32.9879 25.1473L40.3431 17.7563C40.9271 17.1692 41.2551 16.3728 41.255 15.5426C41.2549 14.7122 40.9268 13.916 40.3429 13.3289C39.7588 12.7418 38.9668 12.4121 38.141 12.4122C37.3151 12.4122 36.5231 12.7421 35.9391 13.3292L21.0607 28.2847C20.8295 28.5116 20.5186 28.6377 20.1955 28.6354C19.8724 28.6331 19.5632 28.5026 19.3353 28.2723C19.1308 28.0657 19.007 27.7921 18.9864 27.5014C18.9658 27.2107 19.0498 26.9222 19.2231 26.6886L28.6869 17.1751C29.2583 16.5854 29.5757 15.7932 29.5703 14.9698C29.5649 14.1466 29.2373 13.3585 28.6582 12.7764C28.0791 12.1942 27.2954 11.8648 26.4765 11.8594C25.6576 11.8539 24.8695 12.173 24.2829 12.7475L22.4925 14.5475C22.2624 14.6839 21.9938 14.7397 21.7287 14.7062C21.4637 14.6728 21.2171 14.552 21.0276 14.3627C20.7985 14.1336 20.6686 13.8229 20.6662 13.498C20.6638 13.1731 20.7891 12.8604 21.0147 12.628L28.074 5.53022C28.6454 4.94046 28.9627 4.14816 28.9573 3.3249C28.952 2.50156 28.6242 1.71353 28.0453 1.13138C27.4662 0.54923 26.6823 0.219809 25.8635 0.214423C25.0446 0.209036 24.2566 0.528113 23.67 1.10257L11.9352 12.8985C11.7081 13.1268 11.4 13.2551 11.0788 13.255C10.7575 13.2549 10.4496 13.1266 10.2224 12.8982C9.99531 12.6698 9.86775 12.36 9.86783 12.0371C9.86792 11.7142 9.99557 11.4044 10.2227 11.1761L13.5185 7.86507C13.8164 7.57643 14.054 7.23102 14.2175 6.84893C14.3811 6.46693 14.4672 6.05595 14.471 5.64C14.4749 5.22414 14.3961 4.81162 14.2396 4.42662C14.083 4.04163 13.8518 3.69186 13.5592 3.39775C13.2667 3.10364 12.9188 2.87108 12.5359 2.71368C12.1529 2.55628 11.7426 2.4772 11.3289 2.48104C10.9153 2.48481 10.5065 2.5715 10.1265 2.73591C9.74651 2.90032 9.4029 3.1392 9.1158 3.4387L1.62563 10.9685C1.04168 11.5555 0.713543 12.3518 0.713458 13.1821C0.713458 13.5931 0.793912 14.0003 0.950372 14.3801C1.10683 14.7599 1.33622 15.1051 1.62537 15.3958C1.91444 15.6865 2.25771 15.9171 2.63552 16.0744C3.01325 16.2318 3.41817 16.3128 3.8271 16.3129C4.65292 16.3129 5.44497 15.9831 6.029 15.3961L6.74188 14.6794C6.96896 14.451 7.27701 14.3227 7.59822 14.3226C7.91943 14.3225 8.22757 14.4508 8.45473 14.6791C8.6819 14.9074 8.80955 15.2172 8.80963 15.5401C8.80963 15.863 8.68207 16.1728 8.45499 16.4011L1.09974 23.7923C0.528357 24.3821 0.21099 25.1744 0.216376 25.9976C0.221762 26.8209 0.549389 27.6089 1.12846 28.191C1.70754 28.7732 2.49129 29.1026 3.31018 29.1081C4.12908 29.1135 4.91711 28.7944 5.5037 28.2199L17.5314 16.1294C17.7627 15.9025 18.0736 15.7766 18.3968 15.779C18.7199 15.7814 19.029 15.912 19.2568 16.1423C19.4452 16.3326 19.5655 16.5803 19.599 16.8467C19.6325 17.1131 19.5773 17.3831 19.4419 17.6145Z" fill="#FF5678"/>
</svg>
