<svg width="28" height="28" viewBox="0 0 28 28" fill="none" xmlns="http://www.w3.org/2000/svg">
<path d="M27.095 9.61538L18.7012 8.38355L14.9489 0.702139C14.8464 0.491826 14.6778 0.321573 14.4695 0.218086C13.9472 -0.0423006 13.3124 0.174688 13.0513 0.702139L9.29898 8.38355L0.905123 9.61538C0.673705 9.64876 0.462123 9.75893 0.30013 9.92584C0.10429 10.1291 -0.00362635 10.4025 9.30496e-05 10.6861C0.00381244 10.9697 0.118864 11.2401 0.319966 11.4381L6.39303 17.417L4.95824 25.8595C4.92459 26.0559 4.94612 26.2579 5.02037 26.4426C5.09462 26.6272 5.21862 26.7872 5.37833 26.9043C5.53803 27.0214 5.72703 27.091 5.92391 27.1052C6.12079 27.1194 6.31767 27.0776 6.49221 26.9845L14.0001 22.9986L21.5079 26.9845C21.7129 27.0947 21.9509 27.1314 22.179 27.0913C22.7543 26.9912 23.1411 26.4404 23.0419 25.8595L21.6071 17.417L27.6802 11.4381C27.8455 11.2745 27.9546 11.0609 27.9876 10.8272C28.0769 10.243 27.6736 9.70218 27.095 9.61538Z" fill="#FFC107"/>
</svg>
